<?xml version="1.0"?>
<svg width="384" height="512" xmlns="http://www.w3.org/2000/svg" xmlns:svg="http://www.w3.org/2000/svg">
 <!--! Font Awesome Pro 6.4.0 by @fontawesome - https://fontawesome.com License - https://fontawesome.com/license (Commercial License) Copyright 2023 Fonticons, Inc. -->
 <g class="layer">
  <title>Layer 1</title>
  <path d="m223.5,32c-123.5,0 -223.5,100.3 -223.5,224s100,224 223.5,224c60.6,0 115.5,-24.2 155.8,-63.4c5,-4.9 6.3,-12.5 3.1,-18.7s-10.1,-9.7 -17,-8.5c-9.8,1.7 -19.8,2.6 -30.1,2.6c-96.9,0 -175.5,-78.8 -175.5,-176c0,-65.8 36,-123.1 89.3,-153.3c6.1,-3.5 9.2,-10.5 7.7,-17.3s-7.3,-11.9 -14.3,-12.5c-6.3,-0.5 -12.6,-0.8 -19,-0.8l0,-0.1z" fill="#ffffff" id="svg_1"/>
 </g>
</svg>